<?xml version="1.0" encoding="UTF-8"?>
<svg id="Capa_1" data-name="Capa 1" xmlns="http://www.w3.org/2000/svg" viewBox="0 0 346.02 241.09">
  <defs>
    <style>
      .cls-1 {
        fill: #9d9d9c;
      }

      .cls-1, .cls-2 {
        stroke-width: 0px;
      }

      .cls-2 {
        fill: #575756;
      }
    </style>
  </defs>
  <path class="cls-1" d="m64.46,188.05c-8.07-2.3-14.44-4.12-21.27-6.06C85.65,122.85,129.17,62.22,173.83,0c44.36,61.77,87.9,122.38,130.53,181.74-6.4,1.92-12.7,3.81-21.09,6.32-11.42-13.86-24.62-29.88-38.44-46.67-7.26,8.33-13.81,15.83-21.19,24.29-16.68-21.13-32.72-41.46-49.81-63.12-16.92,21.51-33.01,41.95-49.56,62.99-7.35-8.12-14.22-15.71-21.64-23.91-13.78,16.75-26.73,32.5-38.17,46.4Z"/>
  <path class="cls-2" d="m0,241.09c4.4-6.1,8-10.01,10.34-14.57,3.92-7.63,9.91-9.01,17.84-9.02,7.17,0,14.33-2.21,21.49-3.44.14-1.43.28-2.86.42-4.29,4.51,5.32,9.02,10.64,14.29,16.85,12.57-14.99,24.63-29.37,38.3-45.67v43.64c1.04.55,2.08,1.09,3.11,1.64,22.35-27.83,44.7-55.67,68.07-84.78,22.86,28.53,45.12,56.31,69.35,86.56v-44.5c.98-.37,1.96-.74,2.93-1.12,12.2,14.55,24.41,29.09,37.25,44.41,4.66-5.72,8.87-10.89,12.65-15.53,5.56,2.28,10.58,5.87,15.81,6.22,22.21,1.47,23.55,2,34.16,23.6H0Z"/>
</svg>